<svg width="1901" height="600" viewBox="0 0 1901 600" fill="none" xmlns="http://www.w3.org/2000/svg">
<rect x="523.238" y="0.999985" width="153.272" height="598" fill="#111A1A"/>
<rect x="757.654" y="0.999985" width="153.272" height="598" fill="#111A1A"/>
<rect x="1044.16" y="0.999985" width="153.272" height="598" fill="#111A1A"/>
<rect x="1278.58" y="0.999985" width="153.272" height="598" fill="#111A1A"/>
<rect x="1513" y="1" width="153.272" height="598" fill="#111A1A"/>
<rect x="1747.41" y="1" width="153.272" height="598" fill="#111A1A"/>
<path d="M236.729 598V475H489.177V598H236.729Z" fill="#111A1A" fill-opacity="0.5"/>
<path d="M570.321 598V475H822.77V598H570.321Z" fill="#111A1A" fill-opacity="0.5"/>
<path d="M757.654 598V475H1010.1V598H757.654Z" fill="#111A1A" fill-opacity="0.5"/>
<path d="M1044.16 362V239H1296.61V362H1044.16Z" fill="#111A1A" fill-opacity="0.5"/>
<path d="M1346.7 360V237H1599.15V360H1346.7Z" fill="#111A1A" fill-opacity="0.5"/>
<path d="M1355.72 124V0.999992L1608.17 0.999992V124L1355.72 124Z" fill="#111A1A" fill-opacity="0.5"/>
<path d="M236.729 123V-1.55568e-05L489.177 -1.55568e-05V123L236.729 123Z" fill="#111A1A" fill-opacity="0.5"/>
<path d="M236.729 361V238H489.177V361H236.729Z" fill="#111A1A" fill-opacity="0.5"/>
<rect width="145.196" height="584.14" transform="matrix(0.923199 -0.384322 0.36784 0.929889 20.5461 56.802)" fill="#111A1A" fill-opacity="0.5"/>
<rect width="145.196" height="584.14" transform="matrix(0.923199 -0.384322 0.36784 0.929889 1533.03 56.802)" fill="#111A1A" fill-opacity="0.5"/>
<rect x="0.308105" y="0.999985" width="155.276" height="598" fill="#111A1A"/>
<rect x="236.729" y="0.999985" width="146.26" height="598" fill="#111A1A"/>
</svg>
