<?xml version="1.0" encoding="UTF-8"?>
<svg id="_레이어_2" data-name="레이어 2" xmlns="http://www.w3.org/2000/svg" viewBox="0 0 509.91 420.21">
  <g id="_레이어_1-2" data-name=" 레이어 1">
    <g>
      <path d="M402.87,375.24c-3.71,2.73-7.14,5.58-11.03,8.12-14.33-16.48,2.85-49.32,21.76-53.39,15.87-3.41,0,4.57-7.25,23.5-2.31,6.03-5.06,15.42-3.48,21.76h0Z" style="fill: #f1f1f1; stroke-width: 0px;"/>
      <g>
        <g>
          <path d="M493.4,222.62c-1.57,5.75,9.63,11.61,8.12,24.95-.3,2.66-9.55,21.7-11.61,25.53-9.1-2.15-6.32-7.8-21.76-5.8-6.64.86-14.45,6.21-20.02,9.87,2.86-4.77,18.12-15.37,23.79-22.34,5.82-7.15,17.36-29.33,19.15-31.34,1.73-1.94,1.3-1.18,2.32-.87h0Z" style="fill: #969696; stroke-width: 0px;"/>
          <path d="M506.75,232.48c-1.47,4.99-2.04,10.62-5.22,15.09,1.51-13.34-9.69-19.2-8.12-24.95,1.85.57,9.72,8.63,13.35,9.87h-.01Z" style="fill: #b7b6b6; stroke-width: 0px;"/>
        </g>
        <g>
          <path d="M474.25,277.17c11.9,8.36-2.32,16.64-4.06,23.5-.02.07.74.89,1.16.87-.2.31.61.83.58.87-3.81,5.69-8.07,11.64-12.19,17.12-7.65-5.77-13.44-7.92-23.21-5.51,7.81-14.02,26.25-7.68,12.77-11.61,9.14-6.63-10.17-2.93-22.05,6.96,8.49-9.99,20.49-15.68,32.5-20.31-.74-1.59-19.34,4.89-22.34,7.83,9.52-11.17,21.39-21.59,36.85-19.73h-.01Z" style="fill: #969696; stroke-width: 0px;"/>
          <path d="M484.11,281.23c-.2.34.21,1.68,0,2.03-3.72,6.33-8.72,12.18-12.77,18.28-.42.02-1.18-.8-1.16-.87,1.74-6.86,15.97-15.15,4.06-23.5,3.54.43,7.53.79,9.87,4.06h0Z" style="fill: #b7b6b6; stroke-width: 0px;"/>
        </g>
      </g>
      <g>
        <path d="M47.14,166.33c-1.05-4.13-1.88-22.64-4.64-30.76,4.02.6,5.27,1.47,8.41-2.32,7.61,10.22,11.38-1.09,12.19-1.16.75-.07,3.57,7.84,12.48,5.51-10.24-1.57-10.79-20.93-9.58-21.76.22-.15,4.7,1.5,4.93,2.03.26.6.21,7.54,2.32,12.77,4.68,11.59,15.43,15.18,16.25,10.45.55-3.2-2.56,1.94-6.96-4.06-3.05-4.16-6.37-23.15.29-18.28,1.04.76,1.11,16.65,9.29,23.21,6.21,4.99,8.5,2.59,13.93-1.74.72.21-4.72,12.99,6.67,6.09-2.89-1.72-3.89-19.19-2.03-20.02,7.42-3.3,2.3,8.96,8.41,15.38.38.4,4.61,3.14,4.93,3.19,8.39,1.37.29-4.13-.87-7.25-.53-1.44-1.6-8.78-1.16-9.87.52-1.29,4.19-.43,4.35-.29,1.39,1.18.21,18.35,7.54,16.83,4.38-.91-3.56-13.66.58-15.67,6.82-3.31.49,14.38,9.29,13.35,7.19-.85-3.52-10.53,1.16-12.77,4.58-2.19,1.27,12.65,8.41,5.51-2.47-11.58,7.48-5.97,18.86-15.96,11.19-1.79,39.9,40.45-6.38,39.46-1.71.68,2.4,9.21-1.74,7.54-1.01-.41-1.25-6.4-1.45-6.67-.65-.9-16.56,1.47-18.86,2.03-10.22,2.52-22.85,12.42-14.22-.87l-.87-.87c-13.69,13.76-3.83,7.7-2.61,10.16.48.96-1.7,7.56-7.83,8.41-4.54-17.44-3.6,3.33-16.25,3.48-2.66-8.68,6.45-8.35,1.16-17.41-3.95,8.33,1.68,15.49-8.12,8.12-2.43.96,2.43,10.72-7.25,11.32,8.22-12.76-6.41-14.12-7.54-6.96-.86,5.41,2.49-3.45,6.09-2.03,4.33,1.71-5.25,2.15-6.09,6.67-.24,1.32,1.22,4.31.58,5.22-.15.22-4.84,1.16-5.22.58-1.02-1.52.97-17.18.58-17.99-.27-.57-3.95.4-4.06.58-.47.78.49,7.23,0,8.7-.84,2.51-6.8.14-5.22,9.29-9.61,7.05-7.67-17.25-2.9-19.15-4.13-.4-5.17-5.52-6.09-4.93-2.98,1.91,2.03,5.17,2.03,5.51,0,.5-3.61,1.23-5.22,5.22-1.92,4.75-.76,13.36-1.16,13.93-1.89,2.66-7.09.39-4.06-11.61,1.36-5.39,11.87-11.22-.87-7.25-.34-.96-1.24-2.07-1.45-2.9h-.03Z" style="fill: #f1f1f1; stroke-width: 0px;"/>
        <path d="M112.42,162.85c1.63,2.07-3.1,8.85-4.64,12.77-1.93-.35,3.52-11.81,4.64-12.77Z" style="fill: #060404; stroke-width: 0px;"/>
      </g>
      <g>
        <path d="M448.72,157.04c3.23,5.03,2.59,6.86,4.64,9.87,5.4,5.23,16.21,21.21,18.86,23.79,6.78,6.59,22.52,10.95,20.6,18.28,22.58,17.74,17.54,11.21,13.93,23.5-3.63-1.23-11.5-9.3-13.35-9.87-1.02-.31-.6-1.07-2.32.87-1.79,2.01-13.33,24.18-19.15,31.34-5.68,6.98-20.93,17.57-23.79,22.34-.04.06-1.54.52-.87,1.16,1.25.23.8-1.11.87-1.16,5.57-3.66,13.38-9.01,20.02-9.87,15.44-2,12.66,3.65,21.76,5.8-2.68,4.99-5.55,7.69-5.8,8.12-2.34-3.28-6.32-3.64-9.87-4.06-15.46-1.86-27.33,8.56-36.85,19.73,3-2.95,21.6-9.43,22.34-7.83-12.01,4.63-24.01,10.32-32.5,20.31,11.88-9.89,31.19-13.59,22.05-6.96,13.48,3.93-4.95-2.41-12.77,11.61,9.78-2.41,15.57-.26,23.21,5.51-17.46,23.27-33.63,38.63-56.87,55.71-1.58-6.34,1.17-15.73,3.48-21.76,7.25-18.93,23.12-26.91,7.25-23.5-18.91,4.06-36.09,36.91-21.76,53.39-17.81,11.67-36.75,21.84-57.16,28.44-4.41-3.72-6.46-3.51-7.54-4.06-6.17-3.11-10.8-7.62-12.19-6.96-.89,31.55-29.79,19.33-22.92.87-9.1-5.69,2.04-14.59,2.32-22.05,8.99-6.23,22.67-11.23,33.66-11.03-3.79-7.09-9.58-12.56-13.93-18.86-5.03-7.28-3.59-12.51-15.67-20.31-7.74-12.99-20.09-22.72-24.95-37.43-.88-1.45-2.52.31-3.48-.29-6.55-4.13-10.03-10.61-14.22-16.83-32.97,7.1-41.9-7.62-61.51-16.83-4.29-2.01-48.89-18.52-54.84-20.31-22.15-6.65-44.86-7.47-67.9-8.7-5.77-.31-11.63.26-17.41,0-11.77-.53-28.84,1.29-35.98-7.83-3.99-5.1-10.61-32.6-9.87-34.24.71-1.58,3.21-.38,4.06-1.16,1.22-1.13-.14-25.35,18.57-22.34,2.56.41,4.75,2.11,5.51,4.64,3.16-3.49,6.52-3.61,10.74-1.74.21.84,1.12,1.95,1.45,2.9,12.74-3.96,2.23,1.87.87,7.25-3.03,12,2.17,14.27,4.06,11.61.4-.57-.76-9.18,1.16-13.93,1.62-3.99,5.22-4.72,5.22-5.22,0-.34-5.01-3.6-2.03-5.51.92-.59,1.96,4.53,6.09,4.93-4.77,1.9-6.71,26.2,2.9,19.15-1.58-9.15,4.39-6.78,5.22-9.29.49-1.47-.47-7.92,0-8.7.11-.18,3.79-1.15,4.06-.58.39.81-1.6,16.47-.58,17.99.39.58,5.07-.36,5.22-.58.64-.91-.83-3.9-.58-5.22.84-4.53,10.43-4.97,6.09-6.67-3.6-1.42-6.95,7.44-6.09,2.03,1.13-7.15,15.76-5.8,7.54,6.96,9.68-.6,4.82-10.35,7.25-11.32,9.81,7.37,4.17.21,8.12-8.12,5.29,9.06-3.83,8.73-1.16,17.41,12.65-.15,11.71-20.92,16.25-3.48,6.13-.86,8.31-7.46,7.83-8.41-1.22-2.45-11.08,3.6,2.61-10.16l.87.87c-8.63,13.3,4,3.39,14.22.87,2.3-.57,18.21-2.93,18.86-2.03.2.28.44,6.27,1.45,6.67,4.14,1.66.03-6.86,1.74-7.54,46.28.99,17.57-41.25,6.38-39.46-11.38,9.99-21.33,4.38-18.86,15.96-7.14,7.13-3.84-7.7-8.41-5.51-4.68,2.24,6.03,11.92-1.16,12.77-8.79,1.03-2.46-16.66-9.29-13.35-4.14,2.01,3.8,14.76-.58,15.67-7.33,1.53-6.15-15.65-7.54-16.83-.17-.14-3.83-1-4.35.29-.44,1.08.63,8.43,1.16,9.87,1.16,3.13,9.26,8.62.87,7.25-.32-.05-4.55-2.79-4.93-3.19-6.11-6.42-.99-18.67-8.41-15.38-1.86.83-.86,18.31,2.03,20.02-11.39,6.9-5.95-5.89-6.67-6.09-5.43,4.33-7.71,6.73-13.93,1.74-8.17-6.56-8.25-22.45-9.29-23.21-6.67-4.87-3.34,14.12-.29,18.28,4.4,6,7.52.86,6.96,4.06-.82,4.73-11.57,1.14-16.25-10.45-2.11-5.23-2.06-12.17-2.32-12.77-.23-.53-4.71-2.18-4.93-2.03-1.21.83-.67,20.19,9.58,21.76-8.9,2.33-11.72-5.58-12.48-5.51-.81.08-4.58,11.38-12.19,1.16-3.15,3.79-4.39,2.92-8.41,2.32-.39-.06-.69-2.5-7.25-1.16-1.68-.86-3.28-2.01-4.93-2.9-.17-.09-1.79-2.48-2.61-2.9-13.55-.87-13.92-11.58-18.86-21.76-1.58-3.27-8.39-6.04-6.96-22.05-5.06-.29,1.74-19.29,3.48-23.21,5.8-13.06,18.18-23.1,29.02-31.92-2.74-2.75,3.94-19.04,5.51-19.44,12.02,1.3,22.37,3.44,33.66-1.74,10.25,2.9,20.51,5.8,30.76,8.7,2.04.04,4.4-2.39,9.58-1.16l21.76,5.22c5.47-4.41,13.46-9.55,20.6-10.45,38.09-4.77,21.42,25.85,35.11,25.53,2.97-.07,3.23-10.54,7.25-17.7C205.44,6.41,224.22-1.9,237.74.37c9.36,1.57,6.69,10.24,19.15,17.41,13.32-9.32,30.82-12.31,41.2,2.32,25.03-.39,22.88,9.02,24.37,9.87,1.46.83,13.88-1.37,20.31,16.83,11.05,4.87,30.51,8.89,31.63,22.92,1.53,2.56,28.25,14.31,30.18,33.66,10.33,10.21,26.71,21.18,27.27,36.56,4.65,4,13.87,12.52,16.83,17.12l.04-.02Z" style="fill: #060404; stroke-width: 0px;"/>
        <g>
          <path d="M180.03,171.55c.08.31.42.97.58,1.16,2.66,3.33,42.78-.29,49.04-1.74,5.56-1.29,13.49-5.56,20.6-6.96,9.08.43,17.58-2.59,26.69-2.9,2.27-.08,4.12-.88,6.67-.58,9.83,1.15,21.6,17.98,26.98-23.79,1.12,17.98.3,28.13-17.41,35.69.81,1.66,10.65-4.18,11.03-3.48-3.61,27.19-17.93,47.76-44.97,55.42-28.65,8.11-33.68-2.02-58.61-6.96-21.02-4.17-29.82-.3-48.75-.58-14.28-.21-65.8-2.6-77.76-4.06-7.71-.94-41.29-7.99-45.85-12.19-.9-.83-2.07-1.66-1.16-2.9,52.58,4.94,102.56-14.46,152.91-26.11v-.02Z" style="fill: #969696; stroke-width: 0px;"/>
          <path d="M341.94,94.95c1.23,5.54,6.42-7.8,6.96-10.74,1.28-6.93.32-13.74-.58-20.6,22.47,3.71,16.81,36.21,20.89,64.13,1.45,9.94,4.94,21.88,6.96,31.92,1.15,5.69,3.13,22.64,3.48,23.79.11.35,3.62,6.21,4.06,4.93.51,4.21.65,8.52.58,12.77-5.72.21.47,8.64,1.74,16.54.91,5.64-.03,11.52,1.16,17.12-1.11,1.8-1.61,4.5-3.48,5.8-1.02-7.42-.35-15.01-2.32-22.34-7.77,6.98-3.31-.93-4.64-6.38-.33-1.34-4.66-5.19-5.22-6.96-.74-2.35-4.94-38.07-7.54-48.75-2.06-8.43-5.9-15.39-6.96-19.15-5.37-18.92-2.12-33.82-7.83-4.35-4.52-7.34-3.77-15.87-4.35-24.08-8.37,1.33-6.54,13.49-6.38,20.6,0,.14-1.44-.07-1.16,2.61,6.03,9.93,6.96,25.3,6.38,36.85-.07-.31-1.77-3.17-2.32-5.51-1.24-5.31.41-11.69-2.03-1.45-.9-2.68-6.89-8.1-7.25-9.58-.3-1.2.35-20.01-1.16-13.35-1.37,6.04,3.15,20.85-5.22,5.22,7.08-32.03-6.45-52.84-6.96-56.29-2.79-18.86,9.35-13.93,11.61-20.31.81-2.29.84-8.45.58-11.32.08.15,1.41-.14,2.32,2.61,2.63,7.9,2.63,41.32,8.7,36.27h-.02Z" style="fill: #969696; stroke-width: 0px;"/>
          <path d="M309.44,73.48c.36,4.8-.37,12.48-4.06,15.96,25.79,28.76-7.62,58.62-2.61,34.53-3.33,10.21-7.6,6.87-8.41,2.03-1.91-11.3,10.63-4.72,6.96-22.05-.51-2.43-3.7-10.41-6.67-9.58-6.61,1.86,7.68,22.66-15.67,23.21,2.13-5.38-3.75-7.13-4.64-6.96-.57.1-5.04,6.41-8.12,8.12-.89.49-18.13,6.91-19.15,6.96-13.19.65-13.48-21.98-37.72-18.57-2.68-1.35-5.12-4.97-5.51-5.22l-1.16-6.38c5.01,2.03,19.22,2.55,24.95,2.32,21.83-.86,16.67-7.55,22.34-11.03,1.69-1.04,19.58-5.59,22.92-5.22-2.69,3.73-5.52,7.14-8.7,10.45-.78-.28-1.08-2.35-2.61-2.32-.7.01-3.24,2.58-3.19,3.19.36,4.6,26.05,8.33,27.27,7.54-.2-.24-.61-1.93-.58-2.03,2.26-7.26,4.14-14.37,6.96-21.47,4.46-2.51,14.82-8.32,17.41-3.48h0Z" style="fill: #969696; stroke-width: 0px;"/>
          <path d="M79.05,39.24c1.06-.58,2.14-1.14,3.19-1.74-1.94,2.41-.81,2.76-.87,2.9-.87,1.99-3.43,3.62-2.9,6.38-4.68,4.78-13.37,10.9-18.28,16.83-3.97,1.84-7.93,3.68-11.9,5.51,4.86,3.17,39.03,17.05,40.33,18.86,1.17,1.63-1.47,2.81,1.45,5.8-25.38-8.04-49.94-18.21-76.6-21.76,2.26-7.46,4.74-15.02,9.29-21.47,6.64-9.43,28.62-24.85,9.87-4.06l.87.87c4.06-3.26,9.09-5.22,13.35-8.12,7.77-5.3,17.88-16.95,15.96-10.16-1.6,5.64-20.76,17.73-20.89,19.15-.55,6.07,27.07,3.39,6.09,5.51v1.16c5.21,2.96,25.73-12.77,31.05-15.67h0Z" style="fill: #adadad; stroke-width: 0px;"/>
          <path d="M354.7,228.42c.21,1.67,1.47,4.9,0,6.38-1.3-.01-2.79-.13-4.06,0-2.56-7.37-4.82-15.3-9.87-21.47-2.33-6.5-3.54-13.48-6.67-19.73-3.36,7.36,3.56,25.9-4.93,9.58-4.24-8.14-4.3-15.17-6.96-22.34-.87-2.34-3.13-6.65-5.22-8.12-.32-6.7.73-13.41,3.19-19.73,9.22,17.8,16.71,16.4,18.86,40.91,7.4,15.51,13.38,16.7,15.67,34.53h-.01Z" style="fill: #969696; stroke-width: 0px;"/>
          <path d="M383.72,188.38c-.44,1.28-3.95-4.58-4.06-4.93-.35-1.15-2.33-18.1-3.48-23.79-2.03-10.04-5.51-21.98-6.96-31.92-4.08-27.91,1.57-60.42-20.89-64.13-.06-.48-.75-2.62-1.16-3.19.35-1.71,14.44,5.22,18.57,10.45,8.27,10.45,5.12,37.8,6.96,51.65,6.71,21.45,8.36,43.7,11.03,65.87h0Z" style="fill: #b7b6b6; stroke-width: 0px;"/>
          <path d="M343.68,168.65c.58-11.55-.35-26.92-6.38-36.85-.28-2.68,1.16-2.47,1.16-2.61,17.56,15.73,17.17,44.36,11.03,65.29-3.8-8.07-3.75-17.13-5.8-25.82h-.01Z" style="fill: #969696; stroke-width: 0px;"/>
          <path d="M341.94,94.95c-6.07,5.05-6.08-28.37-8.7-36.27-.91-2.75-2.24-2.46-2.32-2.61-5.46-10.35-11.65-8.86-12.19-10.16-.13-.32,1.18-6.47,1.45-6.67,2.4-1.78,12.55,6.85,14.22,8.99,14.44,18.48,6.46,41.81,7.54,46.72Z" style="fill: #b7b6b6; stroke-width: 0px;"/>
          <g>
            <path d="M380.82,87.4c-2.91,2.09,3.2,4.43,6.96,10.16,11.25,17.12.09,36.73,4.64,54.84-1.02,3.59-1.42,7.49-3.48,10.74-1.16-13.92-3.65-27.53-6.38-41.2l-2.9-2.32-2.32-35.4c1.31-.13,2.82,2.65,3.48,3.19h0Z" style="fill: #969696; stroke-width: 0px;"/>
            <path d="M392.42,152.4c-4.56-18.11,6.61-37.72-4.64-54.84-3.76-5.72-9.88-8.07-6.96-10.16,16.66,13.55,20.19,19.21,17.41,41.49-.62,4.98-4.18,17.77-5.8,23.5h-.01Z" style="fill: #b7b6b6; stroke-width: 0px;"/>
          </g>
          <path d="M187.28,43.88c.64-.06,2.28-.18,2.61.29.72,1.02-2.08,21.52.58,24.95-5.9-1.26-11.8-2.52-17.7-3.77l-.87-.87c3.04-3.01,12.03-20.28,15.38-20.6h0Z" style="fill: #2e2e2e; stroke-width: 0px;"/>
          <path d="M155.07,62.45l-.58-1.74c11.98-3.38,22.46-34.77,13.06-40.62-9.18-5.71-24.14,4.1-24.66,2.61,5.53-5.74,18.55-7.99,25.82-6.67,6.71,1.22,8.66,13.36,8.41,14.22-.29,1-3.97,1.7-4.64,2.9-.58,1.04-1.34,12.99-8.12,22.05-5.14,6.86-8.78,6.91-9.29,7.25h0Z" style="fill: #f1f1f1; stroke-width: 0px;"/>
          <g>
            <path d="M409.83,122.22c-.77-.06-.74,1.47-.58,2.03,1.44,5.12,14.49,11.67,11.03,43.23-1.73,6.22-4.18,11.44-5.22,17.99-2.24-.43-.47,3.22-1.45,4.06-.61.53-1.27-1.53-2.9-1.16-2.04.46-2.81,7.26-5.51,6.38.41-8.76.94-17.25-1.74-25.82-1.25,11.11-3.89,6.1-5.51,7.25-.91.65.7,3.94-1.45,3.48.49-16.85,7.19-34.68,9.29-48.46,1.89-12.38-2.5-14.93,4.06-8.99h-.02Z" style="fill: #969696; stroke-width: 0px;"/>
            <path d="M415.06,185.48c-1.46,9.18-2.98,44.33-4.06,59.77l-7.54-3.48c-.03-.19.03-.39,0-.58-.87-5.44-.44-18.2-1.74-28.44,3.99-.78,3.23-12.49,3.48-17.99,2.7.88,3.47-5.92,5.51-6.38,1.64-.37,2.29,1.69,2.9,1.16.98-.84-.79-4.49,1.45-4.06h0Z" style="fill: #b7b6b6; stroke-width: 0px;"/>
            <path d="M405.19,194.76c-.26,5.5.51,17.21-3.48,17.99-1.57-12.34-5.59-20.39-5.22-33.08,2.16.45.54-2.83,1.45-3.48,1.62-1.15,4.26,3.85,5.51-7.25,2.68,8.57,2.15,17.06,1.74,25.82h0Z" style="fill: #969696; stroke-width: 0px;"/>
            <path d="M420.28,167.49c3.46-31.56-9.59-38.12-11.03-43.23-.16-.56-.19-2.09.58-2.03,22.67,20.51,15.91,25.64,10.45,45.26Z" style="fill: #b7b6b6; stroke-width: 0px;"/>
          </g>
          <path d="M357.03,235.39l-.58.58c-1.03-2.67-.36-5.41-.58-8.12-1.27-15.53-7.11-25.12-.29-38.88.62,3.03,4.3,12.92,4.35,13.64.16,2.17-3.29,24.28-2.9,32.79h0Z" style="fill: #969696; stroke-width: 0px;"/>
          <g>
            <path d="M455.1,180.84c-.57,6.54,1.92,11.91,1.16,18.86-.68,6.19-6.73,16.94-4.06,18.86-4.02,7.5-14.24,20.79-15.09,25.24-1.13,5.91,3.63-6.66,8.99-12.48l-.58,8.7c10.32-12.8,16.81-27.8,23.5-42.65.53-.29,3.86,3.14,4.64,3.77-.48,7.26,7.47,4.9,2.9,18.28-5.84,17.11-37.43,40.58-16.54,28.15,4.47-3.78,10.53-11.88,13.06-12.19-4.19,7.25-13.75,24.5-22.92,25.53-5.46.62-12.23-6.21-4.93,4.93-1.61,7.47-12.95-17.23-13.35-18.57-.85-2.87-2.22-14.08-2.9-18.86,8,1.63,3.6-4.9,6.38-5.22.12,1.94-.28,3.43.58,2.61,4.83-16.63,9.67-33.27,14.51-49.91,1.63-.76,3.88,4.08,4.64,4.93v.02Z" style="fill: #969696; stroke-width: 0px;"/>
            <path d="M438.27,157.04c1.25,17.62-5.83,29.57-5.8,43.52-3.47-1.16-4.38-3.1-6.38-5.8.49-10.18,4.79-23.32-1.16-8.99-.17.42-1.86,9.49-2.9,6.96,2.05-14.64,6.55-29.03,10.16-43.23,2.18,2.39,4.05,5.05,6.09,7.54h-.01Z" style="fill: #969696; stroke-width: 0px;"/>
            <path d="M435.37,220.3c-1.05-4.44-2.9-16.01-2.9-19.73-.02-13.96,7.05-25.9,5.8-43.52,3.22,3.94,6.87,7.04,6.96,12.48.08,4.78-8.85,33.5-9.87,50.78h.01Z" style="fill: #b7b6b6; stroke-width: 0px;"/>
            <path d="M473.09,235.39c-2.53.31-8.59,8.41-13.06,12.19-20.89,12.43,10.7-11.03,16.54-28.15,4.57-13.38-3.38-11.02-2.9-18.28,2.03,1.63,11.06,9.1,11.03,11.32-3.32,7.99-7.27,15.43-11.61,22.92h0Z" style="fill: #b7b6b6; stroke-width: 0px;"/>
            <path d="M432.47,200.57c0,3.72,1.86,15.29,2.9,19.73-.06.94-.06,1.96,0,2.9-2.78.33,1.62,6.85-6.38,5.22-1.34-9.32-.56-19.03-3.48-28.15-.24-4.42.57-5.24.58-5.51,2,2.7,2.92,4.64,6.38,5.8h0Z" style="fill: #868686; stroke-width: 0px;"/>
            <path d="M452.2,218.56c-2.67-1.92,3.38-12.67,4.06-18.86.76-6.95-1.73-12.32-1.16-18.86,2.72,3.04,8.4,7.71,8.12,11.9-.17,2.65-8.94,21.93-11.03,25.82h.01Z" style="fill: #b7b6b6; stroke-width: 0px;"/>
          </g>
          <path d="M384.3,201.15c6.38,12.89,5.2,16.31,7.54,27.86-.92.57-4.17,5.03-4.64,5.8-1.19-5.59-.25-11.48-1.16-17.12-1.27-7.89-7.46-16.33-1.74-16.54h0Z" style="fill: #b7b6b6; stroke-width: 0px;"/>
          <path d="M98.78,43.88c0-.08-1.01-.17-1.16-1.16,14.01-9.59,5.78-24.6,13.06-24.37.18,0,2.98.9,3.19,1.45.54,1.41-5.27,24.74-15.09,24.08Z" style="fill: #f1f1f1; stroke-width: 0px;"/>
          <path d="M155.36,22.41c19.51-2.98,12.68,14.99,9.87,15.09-6.36.23,1.39-10.22-5.8-10.45-.61-.02-4.4,1.78-4.64,1.74-.51-.07-7.41-5.17.58-6.38h0Z" style="fill: #c4c3c3; stroke-width: 0px;"/>
          <path d="M40.46,168.07c10.21-2.13,1.04,9.97.87,10.74-.61,2.7,2.33,12.46-4.35,8.99-1.87-.97-2.34-18.52,3.48-19.73h0Z" style="fill: #d9d9d9; stroke-width: 0px;"/>
          <path d="M302.77,29.37c11.85,2,11.41,2.97,8.7,14.51-10.16-3.8-11.07-2.81-8.7-14.51Z" style="fill: #b7b6b6; stroke-width: 0px;"/>
          <path d="M74.7,10.22c5.62.72-2.24,21.83-10.45,20.89,5.95-7.71,3.89-21.73,10.45-20.89Z" style="fill: #f1f1f1; stroke-width: 0px;"/>
          <path d="M264.17,92.05c6.83,2.44,14.13,3.67,20.89,6.38-.03.1.38,1.79.58,2.03-1.22.78-26.91-2.94-27.27-7.54-.05-.62,2.49-3.18,3.19-3.19,1.53-.02,1.84,2.04,2.61,2.32Z" style="fill: #b7b6b6; stroke-width: 0px;"/>
          <path d="M30.02,166.91c5.62-2.49-.56,12.45.87,19.44-11.61,5.92-2.25-18.83-.87-19.44Z" style="fill: #d9d9d9; stroke-width: 0px;"/>
          <path d="M38.14,112.94c6.01-4.24,6.57,14.27,8.99,16.54-4.17,12.58-10.06-15.79-8.99-16.54Z" style="fill: #f1f1f1; stroke-width: 0px;"/>
          <path d="M50.91,114.1c5.13-4.2,3.85,10.64,6.67,15.96.68,1.27,5.95,3.61,2.03,4.35-9,1.7-9.95-19.29-8.7-20.31Z" style="fill: #f1f1f1; stroke-width: 0px;"/>
          <path d="M439.14,273.11l-20.02,23.5c-7.48,16.97.53-15.67,20.02-23.5Z" style="fill: #aaa; stroke-width: 0px;"/>
          <g>
            <path d="M322.21,180.84c-.39,7.3,2.92,14.5,1.16,21.76,1.65-4.73,9.32,9.02,10.45,11.61,5.13,11.74,5.77,27.54,10.45,39.46,9.01,13.32,15.84,28.22,26.11,40.62.64,1.38,6.93,28.08,6.96,29.6.31,13.1-7.3,2.56-24.66,12.48-20.03-5.76-21.08-36.53-24.08-54.26,5.55,3.21,7.68,12.9,15.38,11.32,7.3-1.5-.48-6.03-2.03-8.99-3.8-7.24-8.72-44.2-11.61-47.01-2.42-2.35-10.2.93-12.19-2.9-1.38-2.66-3.47-24.16-2.9-27.86,1.37-8.86,3.5,1.42,5.8-4.06,2.95-7.02-3.68-21.91-4.06-29.89,2.09,1.47,4.35,5.78,5.22,8.12h0Z" style="fill: #767677; stroke-width: 0px;"/>
            <path d="M367.47,238.29c-.52,5.65-4.2,11.27-4.06,13.64,3.54,7.18,10.16,31.27,9.29,22.63-1.18-11.64-8.25-24.31-.87-35.11,3.19,15.47,28.07,57.06,20.31,70.8-.13.24-3.98,2.95-4.64,2.9-6.1-.48-9.44-18.27-10.74-23.5-5.83-5.17-19.55-30.59-21.47-32.5-3.11-3.08-13.53-3.16-13.06-18.28,10.09,8.82,13.27,15.25,7.25-3.48.52.03.58-.52,1.16-.58,1.27-.13,2.76-.01,4.06,0,.1,0,.19.67,1.74,1.16l.58-.58c2.24,2.81,2.89.14,3.48,0,.95-.22.39-1.09.87-1.16.49-.07,6.71,2.13,6.09,4.06h.01Z" style="fill: #767677; stroke-width: 0px;"/>
            <path d="M367.47,238.29c.62-1.93-5.6-4.14-6.09-4.06-.48.07.08.94-.87,1.16,1.07-6.58,2.13-13.16,3.19-19.73,3.15,5.39,4.32,16.58,3.77,22.63Z" style="fill: #8a8a8a; stroke-width: 0px;"/>
          </g>
          <path d="M24.21,166.91c2.93.14.82,6.27-1.74,4.64-4.1,3.7,2.12,18.35-5.22,15.09-3.66-1.62,1.74-19.99,6.96-19.73Z" style="fill: #d9d9d9; stroke-width: 0px;"/>
          <path d="M95.01,125.71c.7-.28,3.88-.2,4.35.87.27.62,1.76,12.67,1.74,13.35-.1,3.26-2.29,3.06-4.06,1.16-2.59-2.78-3.06-14.96-2.03-15.38Z" style="fill: #f1f1f1; stroke-width: 0px;"/>
          <path d="M28.28,114.1c.81-.42,2.93-.06,3.77.87.51.57,4.91,13.8,4.64,14.51-2.52,6.58-12.17-13.44-8.41-15.38Z" style="fill: #f1f1f1; stroke-width: 0px;"/>
          <path d="M314.37,255.12c4.2.29,9.14,9.03,9.58,12.48,1.49,11.82-5.5,2.54-9.58-12.48Z" style="fill: #8a8a8a; stroke-width: 0px;"/>
          <path d="M146.08,26.47c3.17.63.13,13.43-1.16,16.25-4.66-1.71-3.58-17.2,1.16-16.25Z" style="fill: #f1f1f1; stroke-width: 0px;"/>
          <path d="M51.49,92.05c.22-.15,4.59.85,4.93,2.03.17.58-1.98,11.67-2.61,11.9-5.72,2.1-3.14-13.38-2.32-13.93Z" style="fill: #f1f1f1; stroke-width: 0px;"/>
          <path d="M27.11,86.82c.24-.08,4.8,1.13,4.93,1.45.22.53-1.49,11.11-2.03,11.32-6.63,2.56-4.26-12.31-2.9-12.77h0Z" style="fill: #f1f1f1; stroke-width: 0px;"/>
          <path d="M39.88,89.15c7.23-2.5,2.55,13.62,1.74,13.93-6.09,2.32-2.53-13.66-1.74-13.93Z" style="fill: #f1f1f1; stroke-width: 0px;"/>
          <path d="M95.01,107.72c.24-.17,5.39,1.77,5.51,2.03.42.87-2.84,17.22-5.8,11.03-.28-.59-.24-12.67.29-13.06Z" style="fill: #f1f1f1; stroke-width: 0px;"/>
          <path d="M66.58,97.27c6.25-4.07,3.55,12.86,2.32,13.35-5.75,2.29-3.18-12.79-2.32-13.35Z" style="fill: #f1f1f1; stroke-width: 0px;"/>
          <g>
            <path d="M153.33,60.71c.36-.06.86.09,1.16,0l.58,1.74c-.64.43-2.4,1.34-2.32,2.03,7.32,5.6,33.29,6.01,37.72,11.9-15.24,3.9-29.83,9.22-44.39,15.09-.85-.39-4.69-15.3-5.51-17.41,1.72-4.94,4.54-9.34,6.96-13.93,3.24,1.37,2.75,1.1,5.8.58h0Z" style="fill: #969696; stroke-width: 0px;"/>
            <path d="M153.33,60.71c-3.05.52-2.57.79-5.8-.58.71-1.34,4.17-9.85,4.64-10.16,2.95-1.9,4.87,3.9,1.16,10.74Z" style="fill: #aeadad; stroke-width: 0px;"/>
          </g>
          <g>
            <path d="M272.88,81.6c-3.34-.37-21.23,4.19-22.92,5.22-5.67,3.47-.51,10.16-22.34,11.03-5.56-1.27,2.3-1.39,7.25-3.48,17.48-7.4,21.77-24.61,29.6-40.04,2.72.86,19.63,4.67,20.02,6.67-3.17,7.32-6.93,14.11-11.61,20.6Z" style="fill: #2e2e2e; stroke-width: 0px;"/>
            <path d="M309.44,73.48c-2.59-4.83-12.95.97-17.41,3.48.53-1.34,3.23-9.06,3.77-9.29,4.64.87,8.26,3.75,13.35,3.48,1.84,1.24.28,2.2.29,2.32h0Z" style="fill: #2e2e2e; stroke-width: 0px;"/>
          </g>
          <path d="M17.25,111.2c.18-.04,3.33,1.06,3.48,1.16,5.82,4.07,2.16,24.31-4.35-.29.35-.25.68-.83.87-.87Z" style="fill: #f1f1f1; stroke-width: 0px;"/>
          <path d="M81.08,101.91c5.93-2.28,4.07,11.5,2.32,12.19-4.8,1.89-4.17-11.47-2.32-12.19Z" style="fill: #f1f1f1; stroke-width: 0px;"/>
          <path d="M145.5,162.27c4.14-.46,4.01,6.73,3.77,7.25-.43.95-6.4,2.25-6.67,2.03-.44-.35-1.02-8.85,2.9-9.29h0Z" style="fill: #f1f1f1; stroke-width: 0px;"/>
          <path d="M136.21,165.75c.59.02,1.15-.2,1.45.29-1.07,8.23-1.2,6.78-8.41,8.99-1.98-5.85,6.17-9.32,6.96-9.29h0Z" style="fill: #f1f1f1; stroke-width: 0px;"/>
          <g>
            <path d="M285.65,20.67l5.8,15.67c-3.27-1.13-27.88-11.82-27.86-13.64,6.72-5.16,14.67-6.33,22.05-2.03h.01Z" style="fill: #969696; stroke-width: 0px;"/>
            <path d="M291.45,36.34l-5.8-15.67c8.17,4.76,9.62,16.16,7.83,16.83-.52-.48-1.37-.93-2.03-1.16h0Z" style="fill: #cdcdcd; stroke-width: 0px;"/>
          </g>
          <g>
            <path d="M403.45,241.77c1.07,5.84,3.56,8.12,7.54,12.19-1.49,21.98-2.28,44.13-5.8,65.87-15.68,10.82-7.69,4.37-4.93-6.09-.87-.47-11.31,15.17-11.32,3.19,0-5.77,4.99-2.74,6.38-13.35.39-2.97,1.51-29.26,1.16-30.76-1.88-1.76-3.08-4.36-4.06-6.67,4.02-.86.24-13.33,5.51-9.87,1.07.7.45,1.81,1.45,2.32,4.72,2.41.52-11.45,4.06-17.41.03.19-.03.39,0,.58h0Z" style="fill: #767677; stroke-width: 0px;"/>
            <path d="M391.84,229c.97,4.78.96,10.01,2.32,14.8,1.39,4.91,5.53,9.26,5.22,14.8-1.01-.51-.38-1.62-1.45-2.32-5.28-3.47-1.49,9-5.51,9.87-4.67-10.97-6.92-12.52-8.7-25.53,1.87-1.3,2.37-4,3.48-5.8.48-.77,3.72-5.23,4.64-5.8v-.02Z" style="fill: #8a8a8a; stroke-width: 0px;"/>
            <path d="M410.99,245.25c-.2,2.87.2,5.83,0,8.7-3.98-4.07-6.48-6.35-7.54-12.19l7.54,3.48h0Z" style="fill: #8a8a8a; stroke-width: 0px;"/>
          </g>
          <path d="M111.84,112.36c5.43-2.48,3.69,9.23,2.32,9.87-5.83,2.71-3.69-9.24-2.32-9.87Z" style="fill: #f1f1f1; stroke-width: 0px;"/>
          <path d="M16.09,86.24c3.7-1.77,4.55,15-.58,12.77-.61-.27-.77-12.12.58-12.77Z" style="fill: #f1f1f1; stroke-width: 0px;"/>
          <path d="M6.22,86.24c6.55-4.71,3.86,20.59.29,10.16-.31-.9-.81-9.78-.29-10.16Z" style="fill: #f1f1f1; stroke-width: 0px;"/>
          <path d="M426.95,263.24c9.01,5.54,4.4,3.51-2.32,13.35l2.32-13.35Z" style="fill: #999; stroke-width: 0px;"/>
          <path d="M137.37,114.68c5.67-2.03,3.4,8.93,2.9,9.29-5.44,3.89-5-8.53-2.9-9.29Z" style="fill: #f1f1f1; stroke-width: 0px;"/>
          <path d="M123.45,114.1c5.58-2.7,3.43,8.93,2.9,9.29-.19.13-4.14-.9-4.35-1.45-.15-.37.73-7.49,1.45-7.83h0Z" style="fill: #f1f1f1; stroke-width: 0px;"/>
          <path d="M350.64,234.8c-.58.06-.65.61-1.16.58-1.35-4.21-5.84-14.06-8.7-22.05,5.04,6.17,7.31,14.1,9.87,21.47h0Z" style="fill: #8e8e8e; stroke-width: 0px;"/>
          <path d="M154.2,160.52c5.25-1.88,5.53,8.29,1.16,8.12-2.33-.09-3.18-7.4-1.16-8.12Z" style="fill: #f1f1f1; stroke-width: 0px;"/>
          <path d="M147.82,115.26c4.65-3.29,4.99,7.75,2.32,8.7-4.6,1.65-2.78-8.38-2.32-8.7Z" style="fill: #f1f1f1; stroke-width: 0px;"/>
          <path d="M158.27,36.92c.98-.8,7.43,6.94,2.32,12.77-.19-4.57-3.82-8.19-2.32-12.77Z" style="fill: #c4c3c3; stroke-width: 0px;"/>
          <path d="M362.54,172.13c.63,2.04,9.02,26.38,7.54,26.69-2.84-8.56-7.14-17.64-7.54-26.69Z" style="fill: #909090; stroke-width: 0px;"/>
          <path d="M308.57,273.11l5.22,8.12c-3.59-.55-6.42-4.48-5.22-8.12Z" style="fill: #999; stroke-width: 0px;"/>
          <path d="M403.74,324.75c3.45,1.02-3.36,5.38-4.06,5.22-3.19-.74,3.68-5.33,4.06-5.22Z" style="fill: #a1a1a1; stroke-width: 0px;"/>
          <g>
            <path d="M321.34,375.82c8.64-.75,15.09,13.14,15.38,15.96,1.28,12.51-6.24,2.17-7.83,2.61-2.25.62,2.06,5.08-1.16,5.22-1.51.07-18.62-20.06-20.89,1.74-13.89-10.84-4.19-7.39-6.09-14.8.35-1.11,19.36-10.63,20.6-10.74h-.01Z" style="fill: #2f302f; stroke-width: 0px;"/>
            <path d="M335.26,376.98c3.34-.9,12.56,3.37,14.8,6.67-7.83-4.76-16.27-4.92-16.25-5.8.46-.06,1.22-.81,1.45-.87Z" style="fill: #4a4a4a; stroke-width: 0px;"/>
            <path d="M339.33,386.85c.69,1.02,2.35,2.97,2.61,3.77,2.95,8.85-3.05.2-2.61-3.77Z" style="fill: #444; stroke-width: 0px;"/>
          </g>
          <path d="M321.34,343.32c5.15,8.74-1.64,4.96-.87.87.04-.19.62-.52.87-.87Z" style="fill: #c7c7c7; stroke-width: 0px;"/>
          <path d="M356.44,235.97c-1.55-.49-1.64-1.16-1.74-1.16,1.47-1.49.21-4.71,0-6.38l1.16-.58c.22,2.71-.45,5.46.58,8.12Z" style="fill: #535353; stroke-width: 0px;"/>
          <path d="M448.14,277.17c-.08.05.38,1.39-.87,1.16-.67-.64.83-1.1.87-1.16Z" style="fill: #969696; stroke-width: 0px;"/>
          <g>
            <path d="M310.6,136.73c-5.38,41.77-17.16,24.94-26.98,23.79-2.56-.3-4.4.5-6.67.58-.68-.52-1.16-.42-1.74-.58,1.26-2.13,2.52-4.25,3.77-6.38-6.28,1.85-12.65,1.92-19.15,1.74-26.76,9.47-50.45,16.51-79.21,16.83-.16-.2-.5-.85-.58-1.16,41.98-9.02,25.53-38.31,28.73-40.62,5,1.35,13.57,6.4,16.25,2.9,8.56,11.51,25.83,12.93,37.72,5.8,7.82-4.69,12.71-15.85,25.53-16.83-.03,12.09,11.49,21.8,22.34,13.93h0Z" style="fill: #767677; stroke-width: 0px;"/>
            <g>
              <path d="M275.2,160.52c-7.1-1.94-18.44-.3-24.95,3.48-7.11,1.4-15.04,5.67-20.6,6.96-6.25,1.45-46.37,5.07-49.04,1.74,28.76-.32,52.45-7.35,79.21-16.83,6.5.18,12.87.11,19.15-1.74-1.26,2.13-2.52,4.25-3.77,6.38h0Z" style="fill: #060404; stroke-width: 0px;"/>
              <path d="M275.2,160.52c.59.16,1.06.06,1.74.58-9.12.31-17.61,3.33-26.69,2.9,6.51-3.79,17.85-5.42,24.95-3.48h0Z" style="fill: #8e8e8e; stroke-width: 0px;"/>
            </g>
          </g>
          <g>
            <path d="M97.62,42.72c.16.99,1.15,1.08,1.16,1.16.04.37-1.03,1.23-.58,2.03,3.21,5.67,20.22,6.79,24.08,4.35,2.62-1.65-1.48-5.01,8.12-9.29-4.73,15.93,5.98.69,9.87,1.16.26.03,3.71,3.51,3.77,3.77.73,3.3-9.56,15.45-9.29,18.57,2.47,5.89,5.6,9.05,5.8,9.58.82,2.11,4.66,17.02,5.51,17.41,14.56-5.87,29.16-11.19,44.39-15.09,3.56,4.73,3.53,15.64,12.19,19.15l1.16,6.38c-6.49-4.1-20.74-4.65-28.15-3.48-6.25.98-12.76,9.93-40.04,7.54-15.78-1.38-30.62-7.46-45.55-12.19-2.92-2.99-.28-4.18-1.45-5.8-1.3-1.81-35.47-15.69-40.33-18.86,3.97-1.84,7.93-3.68,11.9-5.51,4.91-5.93,13.6-12.05,18.28-16.83,2.17-2.21,9.66-11.34,2.9-6.38.06-.14-1.07-.49.87-2.9-1.05.6-2.13,1.16-3.19,1.74,4.02-6.31,9.54-3.31,15.67-2.61-4.56,1.59-10.98,21.24-10.45,22.63.17.44,2.3,1.39,2.61,1.45,6.77,1.28,5.2-15.21,10.74-17.99h0Z" style="fill: #999; stroke-width: 0px;"/>
            <path d="M121.71,64.19c2.1,1.01,10.81,9.77,9.29,10.45l-9.29-10.45Z" style="fill: #201a1a; stroke-width: 0px;"/>
            <path d="M78.47,46.78c-.52-2.76,2.04-4.4,2.9-6.38,6.76-4.96-.73,4.17-2.9,6.38Z" style="fill: #060404; stroke-width: 0px;"/>
          </g>
          <g>
            <path d="M228.48,7.32c14.63-1.35,11.93,8.27,13.64,10.16.58.64,7.27,1.77,8.7,4.06-17.15,12.5-9.46,56.07-33.37,62.38-32.9,8.68-26.41-56.54-8.12-69.64,3.31-2.37,15.2-6.6,19.15-6.96h0Z" style="fill: #f1f1f1; stroke-width: 0px;"/>
            <path d="M223.26,10.8c6.09-.73,13.47,1.11,15.38,7.83,3.63,12.78-3.98,68.08-29.89,63.54-20.31-3.55-19.04-67.35,14.51-71.38h0Z" style="fill: #060404; stroke-width: 0px;"/>
            <path d="M235.16,35.18c-9.51,12.27-16.55,28.92-31.92,34.82-3.24-7.94-2.71-20.03-1.16-28.44,11.76-1.18,22.96-5.65,33.66-10.45-.11,1.59-.4,2.64-.58,4.06h0Z" style="fill: #c3c3c3; stroke-width: 0px;"/>
            <path d="M235.74,31.11c-10.7,4.79-21.9,9.26-33.66,10.45,1.81-9.78,8.28-23.42,18.86-26.11,13.68-3.48,15.57,4.51,14.8,15.67h0Z" style="fill: #adadad; stroke-width: 0px;"/>
            <path d="M203.24,69.99c15.37-5.9,22.4-22.55,31.92-34.82-1.26,9.76-6.69,32.08-13.35,39.17-6.95,7.41-15.02,4.33-18.57-4.35h0Z" style="fill: #868686; stroke-width: 0px;"/>
          </g>
        </g>
      </g>
    </g>
  </g>
</svg>