<svg width="2250" height="1024" viewBox="0 0 2250 1024" fill="none" xmlns="http://www.w3.org/2000/svg">
<rect width="2250" height="1024" fill="#00FFFE"/>
<rect x="696.238" y="215" width="153.272" height="598" fill="#111A1A"/>
<rect x="930.655" y="215" width="153.272" height="598" fill="#111A1A"/>
<rect x="1217.16" y="215" width="153.272" height="598" fill="#111A1A"/>
<rect x="1451.58" y="215" width="153.272" height="598" fill="#111A1A"/>
<rect x="1686" y="215" width="153.272" height="598" fill="#111A1A"/>
<rect x="1920.41" y="215" width="153.272" height="598" fill="#111A1A"/>
<path d="M409.728 812V689H662.177V812H409.728Z" fill="#111A1A" fill-opacity="0.5"/>
<path d="M743.322 812V689H995.77V812H743.322Z" fill="#111A1A" fill-opacity="0.5"/>
<path d="M930.655 812V689H1183.1V812H930.655Z" fill="#111A1A" fill-opacity="0.5"/>
<path d="M1217.16 576V453H1469.61V576H1217.16Z" fill="#111A1A" fill-opacity="0.5"/>
<path d="M1519.7 574V451H1772.15V574H1519.7Z" fill="#111A1A" fill-opacity="0.5"/>
<path d="M1528.72 338V215H1781.17V338H1528.72Z" fill="#111A1A" fill-opacity="0.5"/>
<path d="M409.728 337V214H662.177V337H409.728Z" fill="#111A1A" fill-opacity="0.5"/>
<path d="M409.728 575V452H662.177V575H409.728Z" fill="#111A1A" fill-opacity="0.5"/>
<rect width="145.196" height="584.14" transform="matrix(0.923199 -0.384322 0.36784 0.929889 193.546 270.802)" fill="#111A1A" fill-opacity="0.5"/>
<rect width="145.196" height="584.14" transform="matrix(0.923199 -0.384322 0.36784 0.929889 1706.03 270.802)" fill="#111A1A" fill-opacity="0.5"/>
<rect x="173.308" y="215" width="155.276" height="598" fill="#111A1A"/>
<rect x="409.728" y="215" width="146.26" height="598" fill="#111A1A"/>
</svg>
